<svg xmlns="http://www.w3.org/2000/svg" width="136.427" height="77.686" viewBox="0 0 136.427 77.686">
  <g id="Group_62" data-name="Group 62" transform="translate(-25 -8)">
    <path id="Path_3" data-name="Path 3" d="M-525.88,307.358a3.206,3.206,0,0,0,1.371-.3,3.959,3.959,0,0,0,1.142-.8,3.894,3.894,0,0,0,.8-1.165,3.377,3.377,0,0,0,.3-1.394,3.373,3.373,0,0,0-1.073-2.535,3.545,3.545,0,0,0-2.535-1.028,3.519,3.519,0,0,0-2.558,1.028,3.4,3.4,0,0,0-1.051,2.535,3.578,3.578,0,0,0,1.051,2.558A3.409,3.409,0,0,0-525.88,307.358Z" transform="translate(611.179 -259.967)" fill="#f2f2f2"/>
    <path id="Path_4" data-name="Path 4" d="M-481.141,323.616a1.568,1.568,0,0,0-.982-.3,1.013,1.013,0,0,0-.845.572,13.628,13.628,0,0,1-2.512,3.266,8.256,8.256,0,0,1-2.7,1.713q-.64.229-.936-.115a.89.89,0,0,1-.023-.982,22.8,22.8,0,0,0,1.3-4.088,18.005,18.005,0,0,0,.434-3.723,7.82,7.82,0,0,0-2.033-5.778,7.627,7.627,0,0,0-5.642-2.032,10.436,10.436,0,0,0-4.248.845,12.993,12.993,0,0,0-3.449,2.216,15.227,15.227,0,0,0-2.672,3.152,21.929,21.929,0,0,0-1.9,3.655c-.272.677-.506,1.351-.707,2.024q-1.236,2.1-2.491,3.869a19.484,19.484,0,0,1-2.764,3.152q-.5.457-.8.3c-.2-.106-.267-.373-.205-.8a3.875,3.875,0,0,0,.045-.616v-.708q0-.96-.115-2.512t-.205-3.472q-.092-1.919-.045-4.088a42.155,42.155,0,0,1,.32-4.362,2.462,2.462,0,0,0-.206-1.736,2.585,2.585,0,0,0-1.53-.913l-1.325-.412a2.645,2.645,0,0,0-1.781-.023,2.582,2.582,0,0,0-1.188,1.348q-.64,1.371-1.394,2.832t-1.507,2.9q-.754,1.439-1.485,2.764t-1.324,2.33v0q-1.188,2.055-2.4,3.743a32.618,32.618,0,0,1-2.307,2.9,11,11,0,0,1-2.078,1.851,3.283,3.283,0,0,1-1.712.639,1.046,1.046,0,0,1-.595-.183,1.008,1.008,0,0,1-.32-.8,6.394,6.394,0,0,1,.228-1.781,22.483,22.483,0,0,1,1.051-3.083l5.071-12.471q.776-1.963-1.325-1.964h-2.238a3.137,3.137,0,0,0-1.8.457,3.158,3.158,0,0,0-1.073,1.507l-4.522,11.055a19.216,19.216,0,0,0-1.416,5.253,7.287,7.287,0,0,0,.388,3.472,3.821,3.821,0,0,0,1.736,1.942,5.631,5.631,0,0,0,2.672.617,7.924,7.924,0,0,0,3.655-.914,14.192,14.192,0,0,0,3.4-2.49,27.887,27.887,0,0,0,3.129-3.655,47.369,47.369,0,0,0,2.832-4.408v0q.592-1.05,1.277-2.326t1.416-2.649q.228-.5.457-.457t.228.64q0,1.644.069,3.266t.068,2.946a10.25,10.25,0,0,1-.639,4.431,2,2,0,0,1-1.828,1.142,2.747,2.747,0,0,1-.822-.115,4.148,4.148,0,0,0-.776-.159,2.6,2.6,0,0,0-.937.092,5.4,5.4,0,0,0-1.3.593,1.491,1.491,0,0,0-.8,1.188,1.366,1.366,0,0,0,.754,1.188,9.279,9.279,0,0,0,2.284,1.165,10.207,10.207,0,0,0,3.518.525,12.92,12.92,0,0,0,5.093-.96,14.784,14.784,0,0,0,4.066-2.558,21.3,21.3,0,0,0,2.766-2.991,7.381,7.381,0,0,0,1.984,4.384,7.716,7.716,0,0,0,5.779,2.125,10.323,10.323,0,0,0,4.454-.937,12.494,12.494,0,0,0,3.54-2.489,4.082,4.082,0,0,1,1.188-.914,4.891,4.891,0,0,1,1.462-.228,8.9,8.9,0,0,0,2.9-.571,10.755,10.755,0,0,0,2.627-1.439,13.97,13.97,0,0,0,2.307-2.17,19.417,19.417,0,0,0,1.942-2.718,1.229,1.229,0,0,0,.115-1.1A1.812,1.812,0,0,0-481.141,323.616Zm-13.019-.776a2.462,2.462,0,0,1-.548,1.119,2.85,2.85,0,0,1-1.142.525,3.385,3.385,0,0,0-1.782,1.21,3.249,3.249,0,0,0-.685,2.033c0,.153.007.313.022.48a4.564,4.564,0,0,0,.068.479,3.616,3.616,0,0,1-.023,2.33,3.356,3.356,0,0,1-1.622,1.508,2.436,2.436,0,0,1-1.1.274,1.607,1.607,0,0,1-1.37-.685,3.1,3.1,0,0,1-.5-1.873,11.145,11.145,0,0,1,.3-2.284,24.326,24.326,0,0,1,.845-2.923,31.242,31.242,0,0,1,1.279-3.084,20.4,20.4,0,0,1,1.576-2.764,9.73,9.73,0,0,1,1.781-2.01,2.918,2.918,0,0,1,1.851-.776,1.7,1.7,0,0,1,1.3.571,2.765,2.765,0,0,1,.525,1.9A13.639,13.639,0,0,1-494.16,322.84Z" transform="translate(614.542 -263.16)" fill="#f2f2f2"/>
    <path id="Path_5" data-name="Path 5" d="M-480.648,290.224l-6.529-2.116a30.427,30.427,0,0,0,14.915-13.566c1.113-2.036-2-3.856-3.111-1.818a27.073,27.073,0,0,1-12.546,11.819,16.77,16.77,0,0,1-5.9,1.414l-17.647-5.718c-.927-.571-1.841-1.157-2.724-1.778-2.635-1.857-4.914-4.166-7.442-6.163-5.159-4.075-10.932-7.579-17.374-9.16a30.69,30.69,0,0,0-11.734-.617,33.6,33.6,0,0,1,7.671-2.827,22.258,22.258,0,0,1,15.922,2.138c5.262,2.883,9.567,7.148,14.417,10.624,4.554,3.263,9.989,6.067,15.747,5.78,5.635-.28,11.12-3.181,13.214-8.628a1.816,1.816,0,0,0-1.258-2.217,1.842,1.842,0,0,0-2.216,1.258c-1.544,4.016-6.194,5.923-10.227,6-5.483.105-10.456-3.036-14.681-6.218-4.674-3.519-8.964-7.649-14.25-10.272a25.885,25.885,0,0,0-16.913-2.094,41.087,41.087,0,0,0-17.107,8.519,7.071,7.071,0,0,0-7.215,4.646,47.914,47.914,0,0,0-2.631,18.026,3.99,3.99,0,0,0-.61-.546,4.546,4.546,0,0,0-2.7-.777,9.912,9.912,0,0,0-3.015.548,13.526,13.526,0,0,0-3.38,1.69,2.681,2.681,0,0,1-1.393.548,2.36,2.36,0,0,1-1.348-.594l-1.781-1.325a4.128,4.128,0,0,0-1.782-.8,4.285,4.285,0,0,0-1.918.251q-3.519,1.28-7.058,2.422a39.387,39.387,0,0,0-6.418,2.672,15.366,15.366,0,0,0-4.682,3.7,8.246,8.246,0,0,0-1.8,5.459,8.615,8.615,0,0,0,.457,2.832,7.548,7.548,0,0,0,1.325,2.375,7.6,7.6,0,0,0,2.1,1.759,9.319,9.319,0,0,0,2.786,1.028q2.1.366,2.1-1.736v-.228q0-.867-.045-1.393a2.5,2.5,0,0,0-.228-.891,1.865,1.865,0,0,0-.594-.662q-.411-.3-1.142-.8a2.767,2.767,0,0,1-.959-1.005,3.082,3.082,0,0,1-.365-1.553,3.727,3.727,0,0,1,1.073-2.672,10.385,10.385,0,0,1,2.832-2.01,30.12,30.12,0,0,1,4-1.645q2.238-.754,4.522-1.576c.457-.151.769-.137.936.046s.175.5.023.959l-10.507,26.084q-.777,1.965,1.325,1.965h2.238a3.138,3.138,0,0,0,1.8-.457,3.163,3.163,0,0,0,1.074-1.508l8.953-22.292a6.387,6.387,0,0,1,1.691-2.375,14.124,14.124,0,0,1,2.9-2.078,5.467,5.467,0,0,1,2.4-.754,1.239,1.239,0,0,1,.982.342,1.244,1.244,0,0,1,.3.845,7.09,7.09,0,0,1-.639,2.307q-.641,1.576-1.462,3.586l-8.177,20.419q-.777,1.965,1.325,1.965h2.238a3.139,3.139,0,0,0,1.8-.457,3.159,3.159,0,0,0,1.074-1.508l8.862-22.109a7.654,7.654,0,0,1,.708-1.279,7.775,7.775,0,0,1,.937-1.142,14.9,14.9,0,0,1,3.015-2.17,5.638,5.638,0,0,1,2.467-.8,1.166,1.166,0,0,1,.959.342,1.308,1.308,0,0,1,.274.845,7.089,7.089,0,0,1-.639,2.307q-.641,1.576-1.416,3.586l-8.223,20.374a10.075,10.075,0,0,0-.593,6.4c.507,1.939,1.986,3.374,4.158,4.763a18.805,18.805,0,0,0,9.264,2.651h35.554c23.337,0,42.42-13.429,48.649-34.257A7.086,7.086,0,0,0-480.648,290.224Zm-59.6-23.68c6.283,1.473,11.948,4.936,16.91,8.974.57.464,1.13.94,1.686,1.418l-31.511-10.211A25.589,25.589,0,0,1-540.246,266.545Zm58.688,30.729c-5.481,18.33-22.395,30.144-43.137,30.144h-35.542c-5.12,0-7.187-2.091-7.477-4.067,0-.055-.009-.107-.007-.164a7.967,7.967,0,0,1,.595-2.489l9.684-23.937a36.088,36.088,0,0,0,1.256-3.608,10.34,10.34,0,0,0,.435-2.742,4.629,4.629,0,0,0-1.142-3.2,4.126,4.126,0,0,0-3.244-1.279,10.455,10.455,0,0,0-3.54.777c-.273.1-.549.227-.824.354a42.169,42.169,0,0,1,2.312-15.929,1.281,1.281,0,0,1,1.614-.753l78.153,25.326A1.288,1.288,0,0,1-481.559,297.274Z" transform="translate(633.15 -247.498)" fill="#f2f2f2"/>
    <path id="Path_6" data-name="Path 6" d="M-432.045,262.727a1.8,1.8,0,0,0,0-3.6A1.8,1.8,0,0,0-432.045,262.727Z" transform="translate(584.448 -248.511)" fill="#f2f2f2"/>
    <path id="Path_7" data-name="Path 7" d="M-422.1,293.6a1.813,1.813,0,0,0-1.274-.528,1.882,1.882,0,0,0-1.274.528l-3.418,3.415a1.857,1.857,0,0,0-.528,1.274,1.832,1.832,0,0,0,.528,1.273,1.81,1.81,0,0,0,1.273.528,1.878,1.878,0,0,0,1.274-.528l3.419-3.414a1.86,1.86,0,0,0,.528-1.274A1.833,1.833,0,0,0-422.1,293.6Z" transform="translate(582.997 -257.992)" fill="#f2f2f2"/>
  </g>
</svg>
